<svg width="200" height="200" viewBox="0 0 200 200" fill="none" xmlns="http://www.w3.org/2000/svg">
  <rect width="200" height="200" rx="40" fill="url(#paint0_linear)" />
  <path d="M60 100C60 77.909 77.909 60 100 60C122.091 60 140 77.909 140 100C140 122.091 122.091 140 100 140C77.909 140 60 122.091 60 100Z" fill="white" fill-opacity="0.2" />
  <path d="M100 70C82.327 70 68 84.327 68 102C68 119.673 82.327 134 100 134C117.673 134 132 119.673 132 102C132 84.327 117.673 70 100 70ZM100 124C85.64 124 74 112.36 74 98C74 83.64 85.64 72 100 72C114.36 72 126 83.64 126 98C126 112.36 114.36 124 100 124Z" fill="white" />
  <path d="M100 82C91.164 82 84 89.164 84 98C84 106.836 91.164 114 100 114C108.836 114 116 106.836 116 98C116 89.164 108.836 82 100 82ZM100 104C93.373 104 88 98.627 88 92C88 85.373 93.373 80 100 80C106.627 80 112 85.373 112 92C112 98.627 106.627 104 100 104Z" fill="white" />
  <defs>
    <linearGradient id="paint0_linear" x1="0" y1="0" x2="200" y2="200" gradientUnits="userSpaceOnUse">
      <stop stop-color="#1A1F2C" />
      <stop offset="1" stop-color="#6E59A5" />
    </linearGradient>
  </defs>
</svg> 